# xmcd CD database generated by RipIT
#
# Track frame offsets:
# 150
# 29307
# 58417
# 79935
# 107041
# 131708
# 160745
# 186723
#
# Disc length: 3040 seconds
#
# Revision: 0
# Processed by: cddbd v1.5.2PL0 Copyright (c) Steve Scherf et al.
# Submitted via: RipIT 3.9.0 www.suwald.com/ripit/ripit.html on 2014-10-16 at 17:44
#
DISCID=720bde08
DTITLE=Andrzej Przybielski - Sesja Open
DYEAR=2011
DGENRE=Jazz
TTITLE0=Deszczowy
TTITLE1=Rotacje II
TTITLE2=Afro Blues
TTITLE3=O Czasie
TTITLE4=Freebop Towarzyski
TTITLE5=Góru
TTITLE6=Dzień Satyra
TTITLE7=Szkic
EXTD=
EXTT0=
EXTT1=
EXTT2=
EXTT3=
EXTT4=
EXTT5=
EXTT6=
EXTT7=
PLAYORDER=
